<svg id="Layer_1" data-name="Layer 1" xmlns="http://www.w3.org/2000/svg" viewBox="0 0 461 293.01"><defs><style>.cls-1{fill:none;stroke:#000;stroke-miterlimit:10;}.cls-2{fill:#7baeff;}.cls-2,.cls-4{stroke:#4d4963;}.cls-3{isolation:isolate;font-size:12px;font-family:Helvetica;}.cls-4{fill:#e1efff;}.cls-5{fill:#434445;}</style></defs><path class="cls-1" d="M270.55,188.75v8.88q0,8.88,10,8.88h80q10,0,10,7.93v7.93" transform="translate(0 0)"/><path class="cls-1" d="M274.05,194.63l-3.5-7-3.5,7" transform="translate(0 0)"/><path class="cls-1" d="M367.05,216.49l3.5,7,3.5-7" transform="translate(0 0)"/><path class="cls-1" d="M302.78,156.51h35.48" transform="translate(0 0)"/><path class="cls-1" d="M308.67,153l-7,3.5,7,3.5" transform="translate(0 0)"/><path class="cls-1" d="M332.38,160l7-3.5-7-3.5" transform="translate(0 0)"/><rect class="cls-2" x="180.5" y="126.51" width="120" height="60" rx="2.4"/><text class="cls-3" transform="translate(203.66 160.3)">PERI Finance</text><rect class="cls-2" x="188.5" y="232.51" width="120" height="60" rx="2.4"/><text class="cls-3" transform="translate(205.64 267.3)">ExchangeRates</text><rect class="cls-2" x="184.5" y="228.51" width="120" height="60" rx="2.4"/><text class="cls-3" transform="translate(201.64 263.3)">ExchangeRates</text><rect class="cls-2" x="180.5" y="224.51" width="120" height="60" rx="2.4"/><text class="cls-3" transform="translate(221.66 259.3)">Pynths</text><path class="cls-1" d="M400.55,222.37V188.75" transform="translate(0 0)"/><path class="cls-1" d="M397.05,216.49l3.5,7,3.5-7" transform="translate(0 0)"/><path class="cls-1" d="M404.05,194.63l-3.5-7-3.5,7" transform="translate(0 0)"/><rect class="cls-2" x="340.5" y="224.51" width="120" height="60" rx="2.4"/><text class="cls-3" transform="translate(375.99 259.3)">Fee Pool</text><rect class="cls-2" x="340.5" y="126.51" width="120" height="60" rx="2.4"/><text class="cls-3" transform="translate(350.64 161.3)">Inflationary Supply</text><path class="cls-1" d="M120.55,156.51h57.71" transform="translate(0 0)"/><path class="cls-1" d="M172.38,160l7-3.5-7-3.5" transform="translate(0 0)"/><path class="cls-1" d="M120.55,171.75h20q10,0,10,10v47.62q0,10,10,10h17.76" transform="translate(0 0)"/><path class="cls-1" d="M172.43,242.87l7-3.5-7-3.5" transform="translate(0 0)"/><path class="cls-1" d="M60.55,126.51V88" transform="translate(0 0)"/><path class="cls-1" d="M64.05,93.92l-3.5-7-3.5,7" transform="translate(0 0)"/><rect class="cls-4" x="0.64" y="126.51" width="120" height="60" rx="2.4"/><text class="cls-3" transform="translate(11.31 161.3)">Arbitrage Contract</text><path class="cls-1" d="M240.55,71.13v55.38" transform="translate(0 0)"/><path class="cls-1" d="M244.05,77l-3.5-7-3.5,7" transform="translate(0 0)"/><path class="cls-1" d="M120.55,254.61h57.71" transform="translate(0 0)"/><path class="cls-1" d="M172.38,258.11l7-3.5-7-3.5" transform="translate(0 0)"/><path class="cls-1" d="M120.55,239.37h20q10,0,10-10V181.75q0-10,10-10h17.76" transform="translate(0 0)"/><path class="cls-1" d="M172.43,175.3l7-3.5-7-3.5" transform="translate(0 0)"/><rect class="cls-4" x="0.5" y="224.51" width="120" height="60" rx="2.4"/><text class="cls-3" transform="translate(43.99 259.3)">Depot</text><path class="cls-1" d="M240.55,222.37V188.75" transform="translate(0 0)"/><path class="cls-1" d="M237.05,216.49l3.5,7,3.5-7" transform="translate(0 0)"/><path class="cls-1" d="M244.05,194.63l-3.5-7-3.5,7" transform="translate(0 0)"/><path class="cls-1" d="M302.78,254.61h35.53" transform="translate(0 0)"/><path class="cls-1" d="M308.67,251.11l-7,3.5,7,3.5" transform="translate(0 0)"/><path class="cls-1" d="M332.43,258.11l7-3.5-7-3.5" transform="translate(0 0)"/><path d="M289.6,40.44a58.26,58.26,0,0,0-97.87,0l-.56.86.56.86a58.26,58.26,0,0,0,97.87,0l.57-.85Zm-92.46.86a53.49,53.49,0,0,1,33.05-21.47,24.09,24.09,0,0,0,.39,43.05A53.44,53.44,0,0,1,197.14,41.3Zm43.78,14.82A14.86,14.86,0,0,1,230.53,30.8a14.63,14.63,0,0,1,20.69-.09l.09.09a15,15,0,0,1,0,21A14.59,14.59,0,0,1,240.92,56.12Zm10.79,6.54a23.45,23.45,0,0,0,6.07-4.43A24.14,24.14,0,0,0,252,20a53.44,53.44,0,0,1,32.19,21.3,53.43,53.43,0,0,1-32.48,21.36Z" transform="translate(0 0)"/><path d="M235.82,42.12a4.91,4.91,0,1,0-4.85-5v.07a4.87,4.87,0,0,0,4.84,4.9h0" transform="translate(0 0)"/><text class="cls-3" transform="translate(223.33 10.3)">Oracle</text><path class="cls-5" d="M63.66,14.17A34.05,34.05,0,0,0,44,18.87h0C31.3,27.05,27,38.05,26.84,47.4L23,47.3h0a3.54,3.54,0,0,0-3.47,5.6h0L29.88,69.53h0a4.23,4.23,0,0,0,3.41,2.23,4.28,4.28,0,0,0,3.45-2.15h0L47.54,53.3h0A3.74,3.74,0,0,0,47.9,50a3.9,3.9,0,0,0-3.25-2.13h0l-4-.27C40.46,42,43.13,35,51.6,30.09c7.21-3.7,15-4.27,24.76,2.66l1.06.75,7.65-10.94-.93-.74A35.79,35.79,0,0,0,63.66,14.17Zm-.16,2.62A33.44,33.44,0,0,1,81.5,23l-4.81,6.88c-10-6.57-18.82-6-26.36-2.15h0C40.51,33.43,37.43,42.09,38,48.87l.1,1.1,1.1.07,5.09.33c1,.14,1.15.4,1.21.56a1.36,1.36,0,0,1-.22,1L34.59,68.21h0c-.54.83-1,1-1.26,1s-.73-.18-1.26-1L21.69,51.56a1.76,1.76,0,0,1-.28-1.26c.07-.16.3-.46,1.56-.49l6.44.26V48.71c-.18-8.87,3.41-19.55,16-27.68A31.49,31.49,0,0,1,63.5,16.79Zm24.16,8.62a4.43,4.43,0,0,0-3.72,2.35h0l-10.35,16h0A3.79,3.79,0,0,0,73.08,47a3.62,3.62,0,0,0,3.09,2.07h0l4.3.42A18,18,0,0,1,75,62.8a22.7,22.7,0,0,1-14.29,6.91,23.93,23.93,0,0,1-16-5.16l-1.07-.81L36.23,74.5l.91.75c12.24,10,30.27,10.55,42.33,1.16,8.29-5.93,14.29-14.36,14.69-26.71l4.4.15h0a3.58,3.58,0,0,0,3.22-1.43,3.84,3.84,0,0,0-.16-4h0L91,27.55h0A4.5,4.5,0,0,0,87.66,25.41ZM87.55,28c.29,0,.82.29,1.37,1L99.36,45.67c.48.91.35,1.22.28,1.33a1.19,1.19,0,0,1-1,.3l-7-.24v1.32c0,12.33-5.56,20.15-13.72,26h0C67.16,82.76,51,82.53,39.71,74l4.58-6.67a26.68,26.68,0,0,0,16.47,5h.05a25.21,25.21,0,0,0,16-7.7C81,60.22,83.68,54.4,83,48.3l-.12-1-6.38-.63c-.87-.1-.94-.3-1-.41a1.55,1.55,0,0,1,.3-1.08l10.32-16C86.79,28.08,87.26,28,87.55,28Z" transform="translate(0 0)"/><text class="cls-3" transform="translate(36.99 10.3)">Uniswap</text></svg>