<svg id="Layer_1" data-name="Layer 1" xmlns="http://www.w3.org/2000/svg" viewBox="0 0 1668 200"><defs><style>.cls-1{fill:#14085a;}.cls-2{fill:#fff;}</style></defs><rect class="cls-1" width="1668" height="200"/><path class="cls-2" d="M336.27,508.62h12.47v53.9H336.27Z" transform="translate(-126 -440.69)"/><path class="cls-2" d="M398.29,525.1q4.74,4.62,4.74,13.71v23.71H391V540.65q0-4.92-2.15-7.35a7.91,7.91,0,0,0-6.24-2.42,9.54,9.54,0,0,0-7.24,2.81q-2.69,2.8-2.69,8.35v20.48h-12V521.1h11.47V526a16,16,0,0,1,5.93-4.05,20.82,20.82,0,0,1,7.77-1.42Q393.56,520.48,398.29,525.1Z" transform="translate(-126 -440.69)"/><path class="cls-2" d="M440.6,560.52a12.27,12.27,0,0,1-4.35,2,21.83,21.83,0,0,1-5.43.66q-7.4,0-11.43-3.78t-4.05-11.08v-17H409V522h6.39V511.93h12V522h10.32v9.24H427.36v16.86a5.7,5.7,0,0,0,1.34,4,5,5,0,0,0,3.82,1.42,7.73,7.73,0,0,0,4.85-1.54Z" transform="translate(-126 -440.69)"/><path class="cls-2" d="M486.42,545.2H455.08a9.74,9.74,0,0,0,4,6.08,13.23,13.23,0,0,0,7.85,2.23,16,16,0,0,0,5.74-1,13.82,13.82,0,0,0,4.66-3l6.39,6.93q-5.85,6.7-17.09,6.7a27,27,0,0,1-12.4-2.73,20.15,20.15,0,0,1-8.32-7.59,20.88,20.88,0,0,1-2.92-11,21.1,21.1,0,0,1,2.89-11,20.21,20.21,0,0,1,7.93-7.63,24.56,24.56,0,0,1,22.29-.11,19.15,19.15,0,0,1,7.74,7.51A22.4,22.4,0,0,1,486.65,542C486.65,542.12,486.57,543.2,486.42,545.2Zm-28.11-13.32a9.81,9.81,0,0,0-3.39,6.31h20.41a9.94,9.94,0,0,0-3.39-6.28,10.16,10.16,0,0,0-6.78-2.34A10.34,10.34,0,0,0,458.31,531.88Z" transform="translate(-126 -440.69)"/><path class="cls-2" d="M537.39,521.1v34.49q0,11.4-5.93,16.94t-17.32,5.55a43.12,43.12,0,0,1-11.4-1.47,24.79,24.79,0,0,1-8.93-4.23l4.77-8.63a19.68,19.68,0,0,0,6.62,3.43,26.27,26.27,0,0,0,8,1.27q6.24,0,9.2-2.81t3-8.51v-1.77q-4.7,5.16-13.09,5.16a22,22,0,0,1-10.44-2.5,19.06,19.06,0,0,1-7.5-7,21.11,21.11,0,0,1,0-20.94,19.06,19.06,0,0,1,7.5-7,22.11,22.11,0,0,1,10.44-2.5q9,0,13.7,5.93V521.1Zm-14.9,26.75a10.41,10.41,0,0,0,0-14.7,11,11,0,0,0-7.82-2.81,11.16,11.16,0,0,0-7.85,2.81,10.31,10.31,0,0,0,0,14.7,11.16,11.16,0,0,0,7.85,2.81A11,11,0,0,0,522.49,547.85Z" transform="translate(-126 -440.69)"/><path class="cls-2" d="M565.84,522a21.52,21.52,0,0,1,8.43-1.54v11.09c-1.33-.1-2.23-.16-2.69-.16-3.44,0-6.14,1-8.09,2.89s-2.92,4.81-2.92,8.66v19.56h-12V521.1H560v5.46A13.33,13.33,0,0,1,565.84,522Z" transform="translate(-126 -440.69)"/><path class="cls-2" d="M612.7,525.06q5.16,4.59,5.16,13.82v23.64H606.61v-5.16q-3.39,5.77-12.62,5.78a19.54,19.54,0,0,1-8.28-1.62,12.37,12.37,0,0,1-5.35-4.46,11.58,11.58,0,0,1-1.85-6.47,10.8,10.8,0,0,1,4.35-9.09q4.35-3.32,13.44-3.31h9.54a7.64,7.64,0,0,0-2.38-6c-1.6-1.42-4-2.12-7.16-2.12a20.71,20.71,0,0,0-6.51,1,17.19,17.19,0,0,0-5.43,2.81l-4.31-8.39a25.73,25.73,0,0,1,8.12-3.7,36.49,36.49,0,0,1,9.74-1.31Q607.54,520.48,612.7,525.06Zm-10.24,28.57a7.76,7.76,0,0,0,3.38-4.2V545.2H597.6q-7.38,0-7.39,4.85a4.34,4.34,0,0,0,1.81,3.66,8.22,8.22,0,0,0,5,1.34A10.5,10.5,0,0,0,602.46,553.63Z" transform="translate(-126 -440.69)"/><path class="cls-2" d="M655.43,560.52a12.27,12.27,0,0,1-4.35,2,21.83,21.83,0,0,1-5.43.66q-7.39,0-11.43-3.78t-4.05-11.08v-17h-6.39V522h6.39V511.93h12V522H652.5v9.24H642.19v16.86a5.7,5.7,0,0,0,1.34,4,5,5,0,0,0,3.82,1.42,7.73,7.73,0,0,0,4.85-1.54Z" transform="translate(-126 -440.69)"/><path class="cls-2" d="M701.25,545.2H669.91a9.74,9.74,0,0,0,4,6.08,13.23,13.23,0,0,0,7.85,2.23,16,16,0,0,0,5.74-1,13.82,13.82,0,0,0,4.66-3l6.39,6.93q-5.85,6.7-17.09,6.7a27,27,0,0,1-12.4-2.73,20.15,20.15,0,0,1-8.32-7.59,20.88,20.88,0,0,1-2.92-11,21.1,21.1,0,0,1,2.89-11,20.21,20.21,0,0,1,7.93-7.63,24.56,24.56,0,0,1,22.29-.11,19.15,19.15,0,0,1,7.74,7.51A22.4,22.4,0,0,1,701.48,542C701.48,542.12,701.4,543.2,701.25,545.2Zm-28.11-13.32a9.81,9.81,0,0,0-3.39,6.31h20.41a9.94,9.94,0,0,0-3.39-6.28,10.16,10.16,0,0,0-6.78-2.34A10.34,10.34,0,0,0,673.14,531.88Z" transform="translate(-126 -440.69)"/><path class="cls-2" d="M767.89,511a17.85,17.85,0,0,1,11,17.17A18.73,18.73,0,0,1,776,538.54a18.14,18.14,0,0,1-8.12,6.77,30.31,30.31,0,0,1-12.44,2.35H744.6v14.86H732.12v-53.9h23.33A30,30,0,0,1,767.89,511Zm-4.58,24.06a8.44,8.44,0,0,0,2.92-6.89,8.54,8.54,0,0,0-2.92-7c-1.95-1.62-4.8-2.42-8.55-2.42H744.6V537.5h10.16Q760.39,537.5,763.31,535.07Z" transform="translate(-126 -440.69)"/><path class="cls-2" d="M829.45,552.51v10H787.72v-53.9h40.73v10H800.11v11.71h25V540h-25v12.47Z" transform="translate(-126 -440.69)"/><path class="cls-2" d="M873.72,562.52l-10.39-15H851.86v15H839.38v-53.9h23.33A30,30,0,0,1,875.15,511a17.85,17.85,0,0,1,11,17.17,17.56,17.56,0,0,1-11.09,17l12.09,17.32Zm-3.15-41.31c-2-1.62-4.8-2.42-8.55-2.42H851.86v18.78H862q5.63,0,8.55-2.46a9.73,9.73,0,0,0,0-13.9Z" transform="translate(-126 -440.69)"/><path class="cls-2" d="M896,508.62h12.47v53.9H896Z" transform="translate(-126 -440.69)"/><path class="cls-2" d="M955.49,518.63v14.25h25v10h-25v19.63H943v-53.9h40.73v10Z" transform="translate(-126 -440.69)"/><path class="cls-2" d="M991.22,513.4a6.52,6.52,0,0,1,0-9.55,7.64,7.64,0,0,1,5.39-1.93,7.81,7.81,0,0,1,5.39,1.85,5.91,5.91,0,0,1,2.08,4.62,6.54,6.54,0,0,1-2.08,5,7.51,7.51,0,0,1-5.39,2A7.63,7.63,0,0,1,991.22,513.4Zm-.61,7.7h12v41.42h-12Z" transform="translate(-126 -440.69)"/><path class="cls-2" d="M1051.4,525.1q4.72,4.62,4.73,13.71v23.71h-12V540.65q0-4.92-2.16-7.35a7.87,7.87,0,0,0-6.23-2.42,9.54,9.54,0,0,0-7.24,2.81q-2.7,2.8-2.7,8.35v20.48h-12V521.1h11.48V526a15.94,15.94,0,0,1,5.93-4.05,20.82,20.82,0,0,1,7.77-1.42Q1046.65,520.48,1051.4,525.1Z" transform="translate(-126 -440.69)"/><path class="cls-2" d="M1098.48,525.06q5.16,4.59,5.16,13.82v23.64H1092.4v-5.16q-3.39,5.77-12.63,5.78a19.6,19.6,0,0,1-8.28-1.62,12.43,12.43,0,0,1-5.35-4.46,11.66,11.66,0,0,1-1.85-6.47,10.79,10.79,0,0,1,4.36-9.09q4.33-3.32,13.43-3.31h9.55a7.65,7.65,0,0,0-2.39-6c-1.59-1.42-4-2.12-7.16-2.12a20.61,20.61,0,0,0-6.5,1,17.19,17.19,0,0,0-5.43,2.81l-4.32-8.39a25.79,25.79,0,0,1,8.13-3.7,36.49,36.49,0,0,1,9.74-1.31Q1093.31,520.48,1098.48,525.06Zm-10.24,28.57a7.82,7.82,0,0,0,3.39-4.2V545.2h-8.24q-7.4,0-7.39,4.85a4.32,4.32,0,0,0,1.81,3.66,8.19,8.19,0,0,0,5,1.34A10.44,10.44,0,0,0,1088.24,553.63Z" transform="translate(-126 -440.69)"/><path class="cls-2" d="M1152.11,525.1q4.74,4.62,4.74,13.71v23.71h-12V540.65q0-4.92-2.16-7.35a7.91,7.91,0,0,0-6.24-2.42,9.54,9.54,0,0,0-7.24,2.81q-2.68,2.8-2.69,8.35v20.48h-12V521.1H1126V526a16,16,0,0,1,5.93-4.05,20.83,20.83,0,0,1,7.78-1.42Q1147.38,520.48,1152.11,525.1Z" transform="translate(-126 -440.69)"/><path class="cls-2" d="M1176.29,560.41a20.89,20.89,0,0,1,0-37.2,25.51,25.51,0,0,1,11.9-2.73,23.07,23.07,0,0,1,11.43,2.73,16.25,16.25,0,0,1,7.12,7.82l-9.31,5q-3.24-5.68-9.32-5.69a10.54,10.54,0,0,0-7.78,3.08,13,13,0,0,0,0,16.78,10.54,10.54,0,0,0,7.78,3.08q6.17,0,9.32-5.7l9.31,5.09a16.57,16.57,0,0,1-7.12,7.7,22.87,22.87,0,0,1-11.43,2.77A25.51,25.51,0,0,1,1176.29,560.41Z" transform="translate(-126 -440.69)"/><path class="cls-2" d="M1253.48,545.2h-31.34a9.76,9.76,0,0,0,4,6.08,13.23,13.23,0,0,0,7.85,2.23,16,16,0,0,0,5.74-1,13.82,13.82,0,0,0,4.66-3l6.39,6.93q-5.85,6.7-17.1,6.7a27,27,0,0,1-12.39-2.73,20.09,20.09,0,0,1-8.32-7.59,20.88,20.88,0,0,1-2.93-11,21.2,21.2,0,0,1,2.89-11,20.34,20.34,0,0,1,7.93-7.63,23.32,23.32,0,0,1,11.28-2.73,23,23,0,0,1,11,2.62,19,19,0,0,1,7.74,7.51,22.3,22.3,0,0,1,2.81,11.35C1253.71,542.12,1253.64,543.2,1253.48,545.2Zm-28.1-13.32a9.81,9.81,0,0,0-3.39,6.31h20.4a10,10,0,0,0-3.38-6.28,10.16,10.16,0,0,0-6.78-2.34A10.34,10.34,0,0,0,1225.38,531.88Z" transform="translate(-126 -440.69)"/><path class="cls-2" d="M1289.71,561.71a28.92,28.92,0,0,1-9.59-4.5l4.24-9.39a28.84,28.84,0,0,0,8.24,4.08,31.11,31.11,0,0,0,9.55,1.54q5.31,0,7.85-1.58a4.77,4.77,0,0,0,2.54-4.2,4,4,0,0,0-1.5-3.19,11.32,11.32,0,0,0-3.85-2c-1.57-.52-3.69-1.08-6.35-1.7a87.94,87.94,0,0,1-10.09-2.92,16.53,16.53,0,0,1-6.74-4.7,12.71,12.71,0,0,1-2.81-8.63,15,15,0,0,1,2.54-8.5,17.1,17.1,0,0,1,7.66-6.05,31.3,31.3,0,0,1,12.52-2.23,41.4,41.4,0,0,1,10.08,1.23,29.81,29.81,0,0,1,8.63,3.54l-3.85,9.47a30.09,30.09,0,0,0-14.94-4.23q-5.23,0-7.74,1.69a5.17,5.17,0,0,0-2.5,4.47,4.36,4.36,0,0,0,2.89,4.12,45,45,0,0,0,8.81,2.65,89.78,89.78,0,0,1,10.09,2.93,16.83,16.83,0,0,1,6.74,4.62c1.87,2.11,2.81,4.95,2.81,8.55a14.71,14.71,0,0,1-2.58,8.43,17.27,17.27,0,0,1-7.74,6,31.51,31.51,0,0,1-12.55,2.24A44,44,0,0,1,1289.71,561.71Z" transform="translate(-126 -440.69)"/><path class="cls-2" d="M1359.36,560.52a12.4,12.4,0,0,1-4.36,2,21.75,21.75,0,0,1-5.42.66q-7.39,0-11.44-3.78t-4-11.08v-17h-6.39V522h6.39V511.93h12V522h10.32v9.24h-10.32v16.86a5.66,5.66,0,0,0,1.35,4,5,5,0,0,0,3.81,1.42,7.69,7.69,0,0,0,4.85-1.54Z" transform="translate(-126 -440.69)"/><path class="cls-2" d="M1397.62,525.06q5.16,4.59,5.16,13.82v23.64h-11.24v-5.16q-3.39,5.77-12.63,5.78a19.52,19.52,0,0,1-8.27-1.62,12.45,12.45,0,0,1-5.36-4.46,11.65,11.65,0,0,1-1.84-6.47,10.8,10.8,0,0,1,4.35-9.09q4.35-3.32,13.43-3.31h9.55a7.61,7.61,0,0,0-2.39-6c-1.59-1.42-4-2.12-7.16-2.12a20.7,20.7,0,0,0-6.5,1,17.19,17.19,0,0,0-5.43,2.81l-4.31-8.39a25.73,25.73,0,0,1,8.12-3.7,36.49,36.49,0,0,1,9.74-1.31Q1392.47,520.48,1397.62,525.06Zm-10.24,28.57a7.82,7.82,0,0,0,3.39-4.2V545.2h-8.24q-7.4,0-7.39,4.85a4.32,4.32,0,0,0,1.81,3.66,8.22,8.22,0,0,0,5,1.34A10.44,10.44,0,0,0,1387.38,553.63Z" transform="translate(-126 -440.69)"/><path class="cls-2" d="M1431.43,546.28l-5.78,5.69v10.55h-12V505.39h12v32.34l17.56-16.63h14.32l-17.25,17.55,18.79,23.87h-14.55Z" transform="translate(-126 -440.69)"/><path class="cls-2" d="M1464.77,513.4a6.52,6.52,0,0,1,0-9.55,7.62,7.62,0,0,1,5.39-1.93,7.84,7.84,0,0,1,5.39,1.85,5.94,5.94,0,0,1,2.08,4.62,6.57,6.57,0,0,1-2.08,5,8.46,8.46,0,0,1-10.78,0Zm-.62,7.7h12v41.42h-12Z" transform="translate(-126 -440.69)"/><path class="cls-2" d="M1524.94,525.1q4.74,4.62,4.74,13.71v23.71h-12V540.65q0-4.92-2.16-7.35a7.91,7.91,0,0,0-6.24-2.42,9.54,9.54,0,0,0-7.24,2.81q-2.68,2.8-2.69,8.35v20.48h-12V521.1h11.47V526a16,16,0,0,1,5.93-4.05,20.83,20.83,0,0,1,7.78-1.42Q1520.21,520.48,1524.94,525.1Z" transform="translate(-126 -440.69)"/><path class="cls-2" d="M1583.73,521.1v34.49q0,11.4-5.93,16.94t-17.32,5.55a43.12,43.12,0,0,1-11.4-1.47,24.79,24.79,0,0,1-8.93-4.23l4.77-8.63a19.74,19.74,0,0,0,6.63,3.43,26.16,26.16,0,0,0,8,1.27q6.24,0,9.21-2.81t3-8.51v-1.77q-4.7,5.16-13.09,5.16a21.92,21.92,0,0,1-10.43-2.5,19.09,19.09,0,0,1-7.51-7,21.17,21.17,0,0,1,0-20.94,19.09,19.09,0,0,1,7.51-7,22,22,0,0,1,10.43-2.5q9,0,13.71,5.93V521.1Zm-14.9,26.75a10.41,10.41,0,0,0,0-14.7,11,11,0,0,0-7.81-2.81,11.19,11.19,0,0,0-7.86,2.81,10.31,10.31,0,0,0,0,14.7,11.19,11.19,0,0,0,7.86,2.81A11,11,0,0,0,1568.83,547.85Z" transform="translate(-126 -440.69)"/></svg>